<?xml version="1.0" encoding="UTF-8" standalone="no"?>
<!-- Created with Inkscape (http://www.inkscape.org/) -->

<svg
   width="115.30124mm"
   height="32.624416mm"
   viewBox="0 0 115.30124 32.624416"
   version="1.1"
   id="svg1"
   xml:space="preserve"
   inkscape:version="1.3 (0e150ed6c4, 2023-07-21)"
   sodipodi:docname="fimmpro.svg"
   inkscape:export-filename="fimmpro.png"
   inkscape:export-xdpi="96"
   inkscape:export-ydpi="96"
   xmlns:inkscape="http://www.inkscape.org/namespaces/inkscape"
   xmlns:sodipodi="http://sodipodi.sourceforge.net/DTD/sodipodi-0.dtd"
   xmlns="http://www.w3.org/2000/svg"
   xmlns:svg="http://www.w3.org/2000/svg"><sodipodi:namedview
     id="namedview1"
     pagecolor="#ffffff"
     bordercolor="#000000"
     borderopacity="0.25"
     inkscape:showpageshadow="2"
     inkscape:pageopacity="0.0"
     inkscape:pagecheckerboard="0"
     inkscape:deskcolor="#d1d1d1"
     inkscape:document-units="mm"
     inkscape:zoom="3.933822"
     inkscape:cx="278.99076"
     inkscape:cy="1006.0191"
     inkscape:window-width="1920"
     inkscape:window-height="974"
     inkscape:window-x="-11"
     inkscape:window-y="-11"
     inkscape:window-maximized="1"
     inkscape:current-layer="layer2" /><defs
     id="defs1" /><g
     inkscape:groupmode="layer"
     id="layer2"
     inkscape:label="Layer 2"
     transform="translate(-69.90822,-257.09505)"><path
       style="font-weight:bold;font-size:25.4px;font-family:'Josefin Sans';-inkscape-font-specification:'Josefin Sans Bold';stroke-width:0.288463"
       d="m 100.24642,273.28567 v 11.0998 h -3.556002 v -11.0998 z m -3.632202,-3.937 q 0,-0.762 0.5842,-1.27 0.6096,-0.5334 1.3716,-0.5334 0.7366,0 1.3208,0.5334 0.584202,0.508 0.584202,1.27 0,0.762 -0.584202,1.27 -0.5842,0.508 -1.3208,0.508 -0.762,0 -1.3716,-0.508 -0.5842,-0.508 -0.5842,-1.27 z m 21.920212,3.3782 q 1.6256,0 2.5908,0.9144 0.9906,0.9144 1.0414,2.413 v 8.3312 h -3.5306 v -6.858 q -0.0508,-0.8382 -0.2794,-1.2446 -0.2286,-0.4318 -0.889,-0.4826 -1.2446,0 -1.9558,1.2192 -0.6858,1.1938 -0.6858,2.8194 v 4.5466 h -3.556 v -6.858 q -0.0508,-0.8382 -0.3048,-1.2446 -0.254,-0.4318 -0.9398,-0.4826 -1.1938,0 -1.8796,1.2192 -0.6858,1.1938 -0.6858,2.7686 v 4.5974 h -3.556 v -11.0998 h 3.2258 l 0.254,1.7526 q 1.3462,-2.3114 4.0132,-2.3114 1.3462,0 2.2098,0.5588 0.889,0.5334 1.2192,1.6002 0.7112,-0.9906 1.6764,-1.5748 0.9906,-0.5842 2.032,-0.5842 z m 21.92022,0 q 1.6256,0 2.5908,0.9144 0.9906,0.9144 1.0414,2.413 v 8.3312 h -3.5306 v -6.858 q -0.0508,-0.8382 -0.2794,-1.2446 -0.2286,-0.4318 -0.889,-0.4826 -1.2446,0 -1.9558,1.2192 -0.6858,1.1938 -0.6858,2.8194 v 4.5466 h -3.556 v -6.858 q -0.0508,-0.8382 -0.3048,-1.2446 -0.254,-0.4318 -0.9398,-0.4826 -1.1938,0 -1.8796,1.2192 -0.6858,1.1938 -0.6858,2.7686 v 4.5974 h -3.556 v -11.0998 h 3.2258 l 0.254,1.7526 q 1.3462,-2.3114 4.0132,-2.3114 1.3462,0 2.2098,0.5588 0.889,0.5334 1.2192,1.6002 0.7112,-0.9906 1.6764,-1.5748 0.9906,-0.5842 2.032,-0.5842 z m 14.96062,0 q 1.5494,0 2.7686,0.7366 1.2192,0.7366 1.905,2.1082 0.7112,1.3716 0.7112,3.2258 0,1.8288 -0.7874,3.175 -0.762,1.3208 -2.159,2.032 -1.3716,0.6858 -3.1496,0.6858 -0.9652,0 -1.905,-0.3302 -0.9144,-0.3556 -1.524,-0.9906 v 6.35 h -3.5306 v -16.6878 h 3.048 l 0.3048,1.3208 q 2.032,-1.6256 4.318,-1.6256 z m -1.4224,9.1694 q 1.3208,0 2.2606,-0.8636 0.9398,-0.8636 0.9398,-2.1844 0,-1.3716 -0.8636,-2.2352 -0.8382,-0.889 -2.0828,-0.889 -1.0414,0 -1.778,0.4318 -0.7112,0.4064 -1.1684,1.2446 v 2.7178 q 0.2794,0.8128 0.9906,1.2954 0.7366,0.4826 1.7018,0.4826 z m 13.08101,-6.0706 q 0.4572,-0.889 1.2446,-1.6002 0.8128,-0.7112 1.651,-1.0922 0.8382,-0.4064 1.3208,-0.4064 l -0.1778,3.556 q -0.1524,-0.0254 -0.4318,-0.0254 -1.0668,0 -1.8796,0.5588 -0.8128,0.5588 -1.2446,1.4478 -0.4318,0.8636 -0.4318,1.778 v 4.3434 h -3.5306 v -11.0998 h 3.2004 z m 5.56259,2.8702 q 0,-1.7018 0.7874,-3.048 0.8128,-1.3462 2.2606,-2.1082 1.4732,-0.7874 3.3274,-0.7874 1.8542,0 3.2512,0.7874 1.4224,0.762 2.1844,2.1082 0.762,1.3462 0.762,3.048 0,1.7018 -0.762,3.0734 -0.762,1.3716 -2.1844,2.159 -1.397,0.762 -3.302,0.762 -1.8542,0 -3.302,-0.7112 -1.4224,-0.7366 -2.2352,-2.0828 -0.7874,-1.3462 -0.7874,-3.2004 z m 3.5814,0.0254 q 0,1.3208 0.762,2.2098 0.762,0.8636 1.9304,0.8636 1.2192,0 1.9558,-0.8636 0.762,-0.8636 0.762,-2.2098 0,-1.3462 -0.762,-2.2098 -0.7366,-0.8636 -1.9558,-0.8636 -1.1684,0 -1.9304,0.889 -0.762,0.8636 -0.762,2.1844 z"
       id="path12"
       aria-label="immpro" /><path
       id="path9"
       style="fill:#000000;stroke-width:0.102073"
       d="m 82.571007,257.09504 c -4.221198,4.22048 -8.441937,8.44146 -12.662793,12.66228 2.090494,2.09047 4.180973,4.18096 6.271452,6.27145 0.840424,-0.84043 1.68087,-1.68087 2.521293,-2.52129 0.566541,-0.56655 1.133097,-1.1331 1.699638,-1.69964 -0.683506,-0.68351 -1.367018,-1.36701 -2.050521,-2.05052 4.220423,-4.22112 8.441613,-8.44123 12.662276,-12.66228 z m -2.17041,14.7128 c 0.703485,0.70348 1.406982,1.40698 2.110465,2.11046 0.703398,0.7034 1.40655,1.40707 2.109949,2.11047 h 5.17e-4 l 8.441345,-8.44135 -8.441862,-5.1e-4 c -1.406802,1.40698 -2.813615,2.81395 -4.220414,4.22093 z m 4.220414,4.22145 -1.699121,1.69912 c -0.840423,0.84042 -1.680869,1.68086 -2.521293,2.52129 1.406799,1.40697 2.813612,2.81396 4.220414,4.22093 h 8.441862 c -2.81386,-2.81386 -5.628002,-5.62749 -8.441862,-8.44134 z"
       inkscape:export-filename="fimmpro_logo.png"
       inkscape:export-xdpi="96"
       inkscape:export-ydpi="96" /></g></svg>
